<?xml version="1.0" standalone="no"?>
<!DOCTYPE svg PUBLIC "-//W3C//DTD SVG 20010904//EN"
 "http://www.w3.org/TR/2001/REC-SVG-20010904/DTD/svg10.dtd">
<svg version="1.0" xmlns="http://www.w3.org/2000/svg"
 width="512.000000pt" height="512.000000pt" viewBox="0 0 512.000000 512.000000"
 preserveAspectRatio="xMidYMid meet">
<metadata>
Created by potrace 1.14, written by Peter Selinger 2001-2017
</metadata>
<g transform="translate(0.000000,512.000000) scale(0.100000,-0.100000)"
fill="#000000" stroke="none">
<path d="M796 4465 c-25 -7 -59 -23 -73 -36 -15 -13 -184 -180 -375 -371
l-349 -347 152 -151 152 -151 169 168 168 168 2 -1555 3 -1555 208 0 c177 0
208 2 211 15 2 8 4 705 3 1548 0 842 2 1534 4 1537 3 2 79 -70 169 -161 l165
-164 147 147 c82 81 148 150 148 154 0 14 -721 724 -752 740 -47 24 -94 28
-152 14z"/>
<path d="M2133 3835 l1 -215 1493 0 1493 1 0 214 0 215 -1494 0 -1493 0 0
-215z"/>
<path d="M2135 3175 c-2 -11 -3 -107 -3 -212 l1 -193 1173 0 1174 0 0 213 0
212 -1170 0 c-1164 0 -1171 0 -1175 -20z"/>
<path d="M2264 2342 l-131 -3 1 -212 1 -212 853 0 852 0 0 212 0 213 -52 0
c-483 3 -1424 4 -1524 2z"/>
<path d="M2138 1488 c0 -2 -2 -98 -3 -215 l-2 -212 533 -1 534 0 0 215 0 215
-530 0 c-291 0 -531 -1 -532 -2z"/>
</g>
</svg>
